# Made in Blockbench 4.12.3
mtllib soil.mtl

o circle
v 0.46875 0.125 0.19416260736238836
v 0.46875 0.125 -0.1941626073623883
v 0.00004941461 0.125 -0.0017654085
v 0.19416260736238838 0.125 -0.46875
v -0.19416260736238827 0.125 -0.46875000000000006
v -0.4687499999999999 0.125 -0.1941626073623886
v -0.46875 0.125 0.1941626073623884
v -0.19416260736238863 0.125 0.4687499999999999
v 0.19416260736238833 0.125 0.46874999999999994
vt 1 0.29289374999999995
vt 1 0.70710625
vt 0.5 0.5
vt 1 0.70710625
vt 0.70710625 1
vt 0.5 0.5
vt 0.70710625 1
vt 0.29289375 1
vt 0.5 0.5
vt 0.29289375 1
vt 0 0.70710625
vt 0.5 0.5
vt 0 0.70710625
vt 0 0.29289374999999995
vt 0.5 0.5
vt 0 0.29289374999999995
vt 0.29289375 0
vt 0.5 0.5
vt 0.29289375 0
vt 0.70710625 0
vt 0.5 0.5
vt 0.70710625 0
vt 1 0.29289374999999995
vt 0.5 0.5
vn 0 1 0
vn 0 1 0
vn 0 1 0
vn 0 1 0
vn 0 1 0
vn 0 1 0
vn 0 1 0
vn 0 1 0
usemtl m_3fa14100-d8aa-997e-165b-bf798779d661
f 1/1/1 2/2/1 3/3/1
f 2/4/2 4/5/2 3/6/2
f 4/7/3 5/8/3 3/9/3
f 5/10/4 6/11/4 3/12/4
f 6/13/5 7/14/5 3/15/5
f 7/16/6 8/17/6 3/18/6
f 8/19/7 9/20/7 3/21/7
f 9/22/8 1/23/8 3/24/8